<?xml version="1.0" standalone="no"?>
<!DOCTYPE svg PUBLIC "-//W3C//DTD SVG 20010904//EN"
 "http://www.w3.org/TR/2001/REC-SVG-20010904/DTD/svg10.dtd">
<svg version="1.0" xmlns="http://www.w3.org/2000/svg"
 width="208.000000pt" height="199.000000pt" viewBox="0 0 208.000000 199.000000"
 preserveAspectRatio="xMidYMid meet">

<g transform="translate(0.000000,199.000000) scale(0.100000,-0.100000)"
fill="#000000" stroke="none">
<path d="M980 1715 c-6 -8 -9 -23 -5 -35 5 -14 1 -22 -12 -26 -89 -27 -148
-84 -185 -179 -13 -36 -29 -60 -43 -65 -53 -20 -67 -80 -31 -129 14 -19 26
-39 26 -43 0 -9 33 -82 50 -108 5 -8 16 -40 25 -70 27 -91 75 -171 122 -202
48 -32 133 -49 133 -27 0 12 2 12 9 0 8 -12 16 -13 53 -2 71 21 107 56 149
145 20 45 40 98 44 118 4 21 13 42 21 49 7 6 23 36 34 66 11 31 30 67 40 81
11 13 20 35 20 47 0 30 -37 75 -61 75 -12 0 -21 9 -25 28 -25 98 -90 179 -166
205 -35 11 -42 18 -40 36 6 38 -15 51 -83 51 -42 0 -66 -5 -75 -15z m114 -52
c-3 -16 -7 -33 -9 -38 -3 -10 -51 -13 -58 -4 -2 2 -7 19 -10 37 l-6 32 44 0
c44 0 45 -1 39 -27z m-104 -68 c18 -22 119 -21 135 1 16 23 55 12 100 -28 41
-36 63 -74 80 -138 9 -37 16 -45 42 -52 35 -9 50 -37 34 -65 -19 -37 -205 -83
-329 -83 -159 1 -332 56 -332 106 0 20 29 44 53 44 19 0 24 9 35 53 14 61 55
123 101 154 39 27 64 29 81 8z m339 -388 c-6 -12 -19 -31 -29 -42 -9 -11 -22
-45 -29 -75 -6 -30 -26 -84 -44 -120 -27 -54 -40 -69 -77 -87 -59 -31 -132
-30 -191 0 -36 19 -50 34 -76 87 -17 36 -37 90 -44 120 -7 30 -20 64 -29 75
-10 11 -23 31 -30 44 -12 23 -12 24 21 18 19 -3 66 -13 104 -21 101 -22 232
-19 335 8 47 12 88 20 93 18 4 -2 2 -13 -4 -25z"/>
<path d="M846 765 c-21 -7 -50 -27 -65 -44 -15 -18 -83 -59 -166 -100 -77 -39
-147 -81 -157 -94 -9 -13 -26 -79 -38 -148 -11 -68 -25 -141 -30 -162 -7 -34
-6 -39 19 -51 14 -8 42 -17 61 -21 19 -4 106 -22 192 -41 180 -39 196 -40 213
-17 11 15 7 30 -26 94 l-38 77 29 37 c17 21 30 43 30 50 0 6 -14 24 -31 41
l-31 29 4 144 c4 126 7 145 23 157 41 31 51 20 74 -88 34 -153 100 -448 110
-491 5 -21 5 -39 0 -43 -5 -2 -3 -14 4 -25 11 -20 18 -21 117 -14 58 3 177 22
265 40 342 74 329 68 314 131 -5 21 -18 92 -29 157 -12 66 -28 130 -36 143
-10 14 -73 52 -158 94 -83 42 -151 83 -166 100 -25 29 -104 65 -125 56 -7 -2
-25 -63 -41 -135 -26 -119 -43 -161 -45 -113 0 9 -2 32 -5 50 -2 20 2 42 11
55 20 29 19 54 -4 67 -27 14 -124 13 -139 -2 -17 -17 -15 -48 3 -69 12 -13 14
-29 9 -68 -3 -28 -10 -49 -14 -46 -4 2 -15 43 -25 90 -9 47 -21 85 -24 85 -4
0 -7 15 -8 34 -2 60 -11 65 -77 41z m430 -49 c17 -13 19 -30 22 -158 l4 -143
-31 -29 c-39 -37 -39 -52 0 -92 l30 -31 -40 -81 -40 -80 -60 -7 c-33 -4 -64
-4 -69 -1 -8 5 22 165 66 341 11 44 30 128 42 188 24 113 33 124 76 93z m-186
-59 c0 -7 -5 -18 -10 -23 -8 -8 -6 -50 5 -140 14 -120 14 -135 -2 -212 -10
-46 -22 -83 -28 -83 -5 0 -17 37 -27 83 -17 78 -18 91 -3 206 11 86 13 128 5
141 -17 32 -12 41 25 41 22 0 35 -5 35 -13z m-318 -128 c-3 -108 -2 -123 16
-142 34 -38 35 -47 8 -82 -14 -18 -26 -36 -26 -40 0 -3 14 -35 30 -70 17 -35
30 -69 30 -75 0 -13 -8 -12 -165 25 -55 12 -131 29 -168 36 l-69 13 5 31 c3
16 15 84 26 149 11 66 27 126 35 134 15 15 255 140 271 141 6 1 9 -43 7 -120z
m706 56 c72 -36 135 -72 141 -79 6 -7 15 -37 21 -67 5 -30 16 -94 25 -143 9
-49 13 -92 8 -96 -4 -5 -62 -20 -128 -34 -66 -14 -151 -32 -189 -41 -37 -9
-71 -13 -74 -10 -3 3 8 35 26 71 18 35 32 69 32 76 0 6 -12 26 -26 45 l-26 34
26 34 c25 32 26 40 26 154 0 67 2 121 4 121 3 0 63 -29 134 -65z"/>
<path d="M908 89 c-18 -10 -25 -29 -10 -29 4 0 18 9 32 20 27 21 10 28 -22 9z"/>
<path d="M980 75 c7 -8 17 -15 22 -15 6 0 5 7 -2 15 -7 8 -17 15 -22 15 -6 0
-5 -7 2 -15z"/>
<path d="M940 60 c0 -5 5 -10 11 -10 5 0 7 5 4 10 -3 6 -8 10 -11 10 -2 0 -4
-4 -4 -10z"/>
</g>
</svg>
