<?xml version="1.0" standalone="no"?>
<!DOCTYPE svg PUBLIC "-//W3C//DTD SVG 20010904//EN"
 "http://www.w3.org/TR/2001/REC-SVG-20010904/DTD/svg10.dtd">
<svg version="1.0" xmlns="http://www.w3.org/2000/svg"
 width="288.000000pt" height="287.000000pt" viewBox="0 0 288.000000 287.000000"
 preserveAspectRatio="xMidYMid meet">

<g transform="translate(0.000000,287.000000) scale(0.100000,-0.100000)"
fill="#000000" stroke="none">
<path d="M0 1650 l0 -1220 40 0 c22 0 40 4 40 9 0 5 17 11 38 15 20 3 49 8 65
11 21 4 27 2 27 -13 0 -26 103 -194 111 -181 4 8 8 7 12 -2 3 -8 6 -4 6 9 1
12 -3 22 -9 22 -5 0 -13 12 -16 28 -4 15 -12 34 -19 42 -47 56 -19 100 62 100
49 0 54 2 64 28 6 15 11 42 11 60 0 17 4 32 9 32 5 0 9 8 9 17 0 16 2 16 15 2
9 -9 17 -25 18 -37 1 -12 7 -22 14 -22 7 0 13 -9 13 -19 0 -28 11 -52 21 -45
5 3 9 23 9 44 0 28 6 43 21 53 13 9 16 17 10 22 -19 11 -12 25 12 26 19 0 20
1 4 8 -17 6 -17 8 -3 20 9 7 16 22 16 32 0 10 4 20 8 23 13 8 36 -40 27 -56
-4 -7 2 -3 14 10 12 12 26 22 31 22 5 0 12 10 16 23 7 23 40 57 56 57 4 0 8 8
8 19 0 10 7 24 14 31 34 27 75 107 81 155 6 52 21 124 27 130 2 2 50 -55 108
-127 110 -136 281 -330 287 -324 2 2 -13 21 -33 42 -81 86 -127 146 -129 169
-2 13 -6 28 -9 34 -4 5 -3 12 2 15 4 2 5 32 2 65 -3 34 -3 61 0 61 8 0 54 -32
61 -43 4 -5 12 -8 18 -6 13 5 -98 135 -112 131 -5 -2 -7 4 -4 12 3 8 3 16 -1
18 -10 4 -42 64 -42 78 0 7 -6 26 -14 43 -19 45 -44 159 -52 243 -7 75 1 103
46 154 20 23 31 25 123 30 56 3 102 10 104 15 2 6 -3 20 -11 30 -12 17 -28 20
-103 22 -129 2 -120 0 -102 19 24 23 85 27 162 11 l69 -15 -7 26 c-10 39 -23
51 -63 58 -70 13 -88 83 -29 112 32 15 35 32 7 39 -26 7 -28 61 -2 70 24 9 73
63 67 74 -4 5 -1 9 5 9 6 0 9 3 7 8 -3 4 28 5 69 2 41 -3 74 -1 74 3 0 5 7 1
16 -8 14 -13 19 -14 25 -3 7 10 9 10 9 -1 0 -8 3 -12 6 -8 4 3 20 -7 36 -23
16 -17 34 -30 39 -30 20 0 7 -43 -23 -80 -37 -45 -59 -54 -33 -13 l18 26 -34
-24 -33 -23 34 -9 c52 -14 93 -36 113 -63 19 -25 15 -44 -8 -44 -7 0 -34 -9
-59 -20 -37 -16 -46 -24 -46 -45 0 -29 12 -31 104 -11 89 18 183 -6 155 -40
-7 -8 -21 -9 -52 -2 -67 15 -147 5 -169 -22 -10 -12 -18 -26 -18 -31 0 -5 47
-9 104 -9 73 0 112 -4 132 -15 16 -8 23 -15 16 -15 -9 0 -5 -11 11 -30 36 -42
41 -65 27 -119 -13 -51 -23 -98 -40 -181 -13 -62 -66 -176 -92 -201 -10 -9
-18 -21 -18 -26 0 -10 -103 -117 -141 -145 -34 -27 -141 -23 -243 8 -30 10 -9
-14 32 -35 28 -14 57 -18 119 -17 44 0 79 -3 76 -7 -2 -4 8 -5 24 -1 35 8 93
46 87 56 -3 4 0 8 7 8 7 0 23 10 36 22 13 12 32 23 42 25 22 3 29 -26 32 -122
1 -33 4 -63 6 -68 8 -13 83 36 88 58 2 11 6 29 8 40 3 14 5 12 6 -7 1 -36 26
-36 43 0 10 20 21 27 43 28 49 1 53 3 85 37 30 31 31 31 45 13 15 -20 17 -32
18 -98 0 -21 4 -38 8 -38 5 0 13 -17 19 -38 9 -33 8 -39 -11 -54 -12 -10 -29
-18 -38 -18 -14 0 -14 -2 -1 -10 12 -8 12 -10 1 -10 -19 0 -145 -104 -131
-108 7 -3 17 1 23 7 15 15 30 14 21 -1 -4 -8 -3 -10 2 -5 5 5 10 13 10 18 1 5
2 14 3 19 0 6 8 10 16 10 8 0 15 5 15 11 0 5 5 7 11 3 8 -4 7 -9 -2 -15 -8 -5
-12 -9 -9 -10 64 -12 100 -3 100 26 0 19 4 22 23 18 12 -3 32 -15 44 -25 12
-11 26 -17 31 -14 14 8 67 -44 83 -82 8 -17 21 -32 29 -32 11 0 12 -2 2 -8 -9
-7 -8 -13 7 -26 14 -13 18 -26 15 -46 -4 -15 -1 -31 5 -34 6 -4 9 -11 6 -16
-3 -5 -1 -18 4 -29 7 -12 7 -30 1 -51 -6 -22 -6 -39 2 -54 14 -24 18 -85 7
-92 -4 -2 -6 -22 -5 -44 2 -22 -2 -50 -8 -62 -6 -13 -10 -40 -8 -60 3 -30 7
-38 23 -38 19 0 26 30 21 101 -1 15 4 29 11 32 10 4 11 22 4 83 -5 44 -8 95
-8 114 0 19 -3 42 -6 50 -11 29 -12 104 -1 117 8 10 7 13 -3 14 -8 0 -3 5 10
10 16 6 28 6 34 0 5 -5 15 -7 22 -4 8 3 18 -9 26 -31 9 -25 19 -36 34 -37 42
-1 57 -8 81 -36 30 -35 32 -79 5 -86 -17 -4 -20 1 -23 42 -3 43 -4 45 -15 21
-7 -14 -12 -19 -12 -12 -1 10 -4 10 -16 -2 -17 -17 -20 -36 -5 -36 6 0 10 -8
10 -17 0 -14 2 -15 9 -5 7 11 9 11 14 -2 4 -9 18 -16 32 -16 14 0 25 -4 25
-10 0 -5 -8 -10 -17 -10 -9 0 -25 -8 -35 -17 -17 -15 -20 -15 -28 -3 -8 13
-10 12 -10 -2 0 -9 5 -20 10 -23 7 -4 8 -24 5 -48 -9 -59 -19 -62 -12 -4 4 26
5 47 2 47 -10 0 -36 -61 -33 -78 2 -9 -3 -16 -9 -15 -7 2 -13 -4 -13 -12 0 -9
-6 -18 -14 -21 -8 -3 -12 -12 -9 -20 4 -10 -3 -14 -21 -14 -23 0 -26 -4 -25
-32 0 -18 3 -27 6 -20 7 17 23 15 23 -3 0 -13 34 -15 250 -15 l250 0 0 1435 0
1435 -1440 0 -1440 0 0 -1220z m1204 84 c9 -3 14 -10 11 -15 -7 -10 -35 0 -35
12 0 11 3 11 24 3z m-296 -125 c-3 -20 -5 -19 -9 9 -3 20 -2 29 4 23 5 -5 7
-19 5 -32z m1032 0 c0 -6 -4 -7 -10 -4 -5 3 -10 11 -10 16 0 6 5 7 10 4 6 -3
10 -11 10 -16z m-40 -58 c0 -10 -7 -24 -15 -31 -13 -11 -15 -8 -15 19 0 21 5
31 15 31 8 0 15 -8 15 -19z m-892 -467 c40 -27 53 -44 32 -44 -6 0 -32 15 -58
33 -26 19 -54 37 -62 40 -8 4 -1 5 16 3 17 -3 49 -17 72 -32z m45 -122 c-6
-23 -23 -21 -23 4 0 8 5 12 10 9 6 -3 10 -1 10 6 0 7 2 10 5 8 2 -3 2 -15 -2
-27z m-633 -322 c0 -16 -2 -30 -5 -30 -9 0 -26 41 -20 50 12 20 25 9 25 -20z
m-146 -146 c4 -10 1 -14 -6 -12 -15 5 -23 28 -10 28 5 0 13 -7 16 -16z"/>
<path d="M1277 1743 c-3 -5 -8 -37 -12 -73 -3 -36 -15 -85 -26 -108 -11 -24
-18 -49 -15 -55 3 -8 5 -8 5 1 1 7 5 11 10 8 10 -7 71 125 78 171 4 21 1 33
-6 33 -6 0 -11 7 -11 15 0 16 -16 21 -23 8z"/>
<path d="M1365 1718 c-10 -18 -23 -36 -29 -40 -7 -5 -4 -8 6 -8 9 0 19 -10 23
-22 16 -59 42 -107 78 -145 22 -22 36 -46 33 -52 -4 -6 -3 -11 3 -11 23 0 24
52 2 95 -13 26 -21 61 -21 94 0 28 -4 51 -9 51 -5 0 -12 16 -15 35 -9 47 -44
49 -71 3z"/>
<path d="M1393 1473 c-7 -2 -13 -11 -13 -18 0 -11 6 -11 30 1 17 9 30 17 30
20 0 5 -32 4 -47 -3z"/>
<path d="M1469 1280 c-20 -11 -179 -15 -264 -6 -52 5 -57 5 -35 -6 14 -7 31
-18 38 -25 9 -8 23 -10 40 -6 15 4 38 7 52 6 14 -1 46 -2 72 -3 26 0 50 -5 53
-10 3 -5 13 -6 21 -3 13 5 15 1 9 -15 -4 -14 -2 -22 5 -22 18 0 42 29 37 44
-3 8 1 17 9 20 8 3 14 12 14 21 0 17 -26 19 -51 5z"/>
<path d="M1327 585 c3 -8 9 -12 14 -9 12 7 11 11 -5 17 -10 4 -13 1 -9 -8z"/>
<path d="M1357 543 c-14 -13 -6 -20 18 -15 15 2 25 0 25 -7 0 -6 -13 -11 -29
-11 -16 0 -31 -6 -34 -12 -7 -21 14 -57 29 -51 25 9 17 -41 -8 -52 -19 -8 -85
-115 -72 -115 3 0 -3 -11 -11 -24 -11 -17 -17 -58 -20 -140 l-5 -116 45 0 c53
0 52 -2 58 145 3 61 17 152 35 232 17 72 28 141 25 152 -5 20 -41 29 -56 14z"/>
<path d="M1231 510 c0 -8 -26 -64 -57 -124 l-55 -109 3 -101 c2 -56 -1 -118
-6 -138 -5 -25 -5 -38 2 -38 14 0 35 134 29 184 -8 61 8 128 53 218 23 45 39
90 37 102 -2 11 -5 14 -6 6z"/>
<path d="M368 453 c6 -2 18 -2 25 0 6 3 1 5 -13 5 -14 0 -19 -2 -12 -5z"/>
<path d="M210 191 c0 -5 14 -24 32 -42 18 -19 31 -37 30 -41 -1 -5 2 -8 8 -8
6 0 10 -9 10 -20 0 -26 54 -80 80 -80 15 0 20 7 20 29 0 30 -10 44 -50 71 -24
16 -83 61 -112 85 -10 8 -18 11 -18 6z"/>
</g>
</svg>
